<svg xmlns="http://www.w3.org/2000/svg"  viewBox="0 0 48 48" width="144px" height="144px"><path d="M 26.470703 1.9863281 A 1.50015 1.50015 0 0 0 25.439453 2.4394531 L 21.439453 6.4394531 L 20.939453 6.9394531 A 1.50015 1.50015 0 0 0 20.939453 9.0605469 L 25.439453 13.560547 A 1.50015 1.50015 0 1 0 27.560547 11.439453 L 25.171875 9.0507812 C 27.243973 9.2119313 29.19536 9.7892571 30.939453 10.699219 L 33.140625 8.5 C 31.005 7.2329688 28.580628 6.4081263 26 6.1210938 L 27.560547 4.5605469 A 1.50015 1.50015 0 0 0 26.470703 1.9863281 z M 42.470703 3.9863281 A 1.50015 1.50015 0 0 0 41.439453 4.4394531 L 35.609375 10.269531 L 33.490234 12.390625 L 12.390625 33.490234 L 10.269531 35.609375 L 4.4394531 41.439453 A 1.50015 1.50015 0 1 0 6.5605469 43.560547 L 12.386719 37.734375 C 15.03719 39.986509 18.352789 41.482554 21.990234 41.888672 L 20.439453 43.439453 A 1.50015 1.50015 0 1 0 22.560547 45.560547 L 26.560547 41.560547 L 27.060547 41.060547 A 1.50015 1.50015 0 0 0 27.060547 38.939453 L 22.560547 34.439453 A 1.50015 1.50015 0 0 0 21.484375 33.984375 A 1.50015 1.50015 0 0 0 20.439453 36.560547 L 22.828125 38.949219 C 19.691019 38.704786 16.826355 37.484484 14.521484 35.599609 L 35.599609 14.521484 C 37.717207 17.110934 39 20.406677 39 24 C 39 28.86 36.620859 33.44 32.630859 36.25 C 31.960859 36.73 31.799531 37.669844 32.269531 38.339844 C 32.569531 38.759844 33.03 38.980469 33.5 38.980469 C 33.8 38.980469 34.099141 38.889219 34.369141 38.699219 C 39.149141 35.329219 42 29.83 42 24 C 42 19.57756 40.395369 15.518367 37.734375 12.386719 L 43.560547 6.5605469 A 1.50015 1.50015 0 0 0 42.470703 3.9863281 z M 14.466797 9.0234375 C 14.176641 9.0297656 13.885859 9.1207813 13.630859 9.3007812 C 8.8508594 12.670781 6 18.17 6 24 C 6 27.33 6.91 30.460625 8.5 33.140625 L 10.699219 30.939453 C 9.6192188 28.869453 9 26.51 9 24 C 9 19.14 11.379141 14.56 15.369141 11.75 C 16.039141 11.27 16.200469 10.330156 15.730469 9.6601562 C 15.430469 9.2351562 14.950391 9.0128906 14.466797 9.0234375 z"/></svg>